<svg xmlns="http://www.w3.org/2000/svg" xmlns:xlink="http://www.w3.org/1999/xlink" width="500" zoomAndPan="magnify" viewBox="0 0 375 374.999991" height="500" preserveAspectRatio="xMidYMid meet" version="1.0"><defs><clipPath id="id1"><path d="M 70.519531 76.105469 L 304.519531 76.105469 L 304.519531 298.855469 L 70.519531 298.855469 Z M 70.519531 76.105469 " clip-rule="nonzero"/></clipPath></defs><rect x="-37.5" width="450" fill="rgb(100%, 100%, 100%)" y="-37.499999" height="449.999989" fill-opacity="1"/><rect x="-37.5" width="450" fill="rgb(100%, 100%, 100%)" y="-37.499999" height="449.999989" fill-opacity="1"/><rect x="-37.5" width="450" fill="rgb(14.118958%, 14.118958%, 14.118958%)" y="-37.499999" height="449.999989" fill-opacity="1"/><g clip-path="url(#id1)"><path fill="rgb(93.728638%, 93.728638%, 93.728638%)" d="M 300.484375 150.5625 C 287.824219 103.957031 249.523438 76.136719 198.03125 76.136719 L 70.519531 76.136719 L 73.035156 81.898438 C 83.84375 106.660156 108.292969 122.667969 135.324219 122.675781 L 170.046875 122.675781 L 170.332031 122.667969 C 171.648438 122.574219 176.527344 122.277344 183.839844 122.277344 C 190.875 122.277344 198.042969 122.554688 205.117188 123.097656 L 205.8125 123.148438 C 232.902344 125.28125 270.015625 132.359375 292.953125 153.945312 L 293.246094 154.21875 C 293.367188 154.332031 293.488281 154.441406 293.601562 154.5625 L 304.515625 165.425781 Z M 303.976562 204.269531 L 303.945312 204.71875 C 297.058594 262.785156 256.039062 298.851562 196.894531 298.851562 L 115.546875 298.851562 L 115.546875 188.917969 L 119.664062 188.917969 C 143.476562 188.917969 162.851562 208.289062 162.851562 232.09375 L 162.851562 251.558594 L 198.878906 251.558594 C 216.625 251.558594 231.566406 245.734375 242.097656 234.710938 C 252.8125 223.492188 258.476562 207.28125 258.476562 187.828125 L 258.476562 187.160156 C 258.476562 172.097656 255.164062 159.109375 248.625 148.550781 L 242.523438 138.695312 L 253.476562 142.496094 C 267.066406 147.210938 278.09375 153.488281 286.242188 161.164062 C 298.148438 172.375 304.117188 186.875 303.976562 204.269531 " fill-opacity="1" fill-rule="nonzero"/></g></svg>